<?xml version="1.0" encoding="UTF-8" standalone="no"?>
<svg
   xmlns:dc="http://purl.org/dc/elements/1.1/"
   xmlns:cc="http://creativecommons.org/ns#"
   xmlns:rdf="http://www.w3.org/1999/02/22-rdf-syntax-ns#"
   xmlns:svg="http://www.w3.org/2000/svg"
   xmlns="http://www.w3.org/2000/svg"
   xmlns:sodipodi="http://sodipodi.sourceforge.net/DTD/sodipodi-0.dtd"
   xmlns:inkscape="http://www.inkscape.org/namespaces/inkscape"
   version="1.1"
   x="0px"
   y="0px"
   viewBox="0 0 85.375 85.378998"
   enable-background="new 0 0 100 100"
   xml:space="preserve"
   id="svg2"
   inkscape:version="0.91 r13725"
   sodipodi:docname="Site_Logo.svg"
   width="85.375"
   height="85.378998"><metadata
     id="metadata30"><rdf:RDF><cc:Work
         rdf:about=""><dc:format>image/svg+xml</dc:format><dc:type
           rdf:resource="http://purl.org/dc/dcmitype/StillImage" /><dc:title></dc:title></cc:Work></rdf:RDF></metadata><defs
     id="defs28" /><sodipodi:namedview
     pagecolor="#ffffff"
     bordercolor="#666666"
     borderopacity="1"
     objecttolerance="10"
     gridtolerance="10"
     guidetolerance="10"
     inkscape:pageopacity="0"
     inkscape:pageshadow="2"
     inkscape:window-width="1280"
     inkscape:window-height="706"
     id="namedview26"
     showgrid="false"
     inkscape:zoom="2.8284271"
     inkscape:cx="144.83647"
     inkscape:cy="34.895413"
     inkscape:window-x="0"
     inkscape:window-y="1"
     inkscape:window-maximized="1"
     inkscape:current-layer="svg2"
     fit-margin-top="0"
     fit-margin-left="0"
     fit-margin-right="0"
     fit-margin-bottom="0" /><path
     inkscape:connector-curvature="0"
     d="m 69.841713,33.94316 0,-8.889913 c 0,-10.864253 -9.618088,-19.7541657 -21.370386,-19.7541657 l -10.686026,0 c -11.75314,0 -21.371229,8.8899127 -21.371229,19.7541657 l 0,8.889913 -10.6843636,25.681032 c 0,4.938155 16.7437726,14.815239 37.3986006,14.815239 20.654839,0 37.398608,-9.877084 37.398608,-14.815239 L 69.841713,33.94316 Z M 27.100097,66.414541 c -1.10699,0 -2.00373,-0.829685 -2.00373,-1.852194 0,-1.024044 0.89674,-1.851425 2.00373,-1.851425 1.107836,0 2.003743,0.827381 2.003743,1.851425 0,1.022509 -0.895907,1.852194 -2.003743,1.852194 M 24.429005,39.869256 c 0,-1.358223 0.742992,-3.344088 1.64804,-4.411923 0,0 2.538949,-2.996082 7.701617,-2.996082 2.619567,0 4.447111,1.113161 4.447111,1.113161 1.227507,0.745946 2.231444,2.467541 2.231444,3.824997 l 0,3.704387 c 0,0.678344 -1.201737,1.234539 -2.671094,1.234539 l -10.686026,0 c -1.469344,7.68e-4 -2.671092,-1.111624 -2.671092,-2.469079 m 10.684371,24.693091 -2.671093,0 0,-4.938155 2.671093,-2.469849 0,7.408004 z m 6.678553,0 -4.006628,0 0,-9.877082 4.006628,0 0,9.877082 z m -2.671082,-12.346929 0,-3.703618 c 0,-2.046555 1.795958,-3.703619 4.007462,-3.703619 2.212337,0 4.006639,1.657064 4.006639,3.703619 l 0,3.703618 -8.014101,0 z m 9.35048,12.346929 -4.006639,0 0,-9.877082 4.006639,0 0,9.877082 z m 5.342186,0 -2.671093,0 0,-7.408004 2.671093,2.469849 0,4.938155 z m 5.343006,1.852194 c -1.107834,0 -2.003729,-0.829685 -2.003729,-1.852194 0,-1.024044 0.895895,-1.851425 2.003729,-1.851425 1.10617,0 2.002909,0.827381 2.002909,1.851425 0,1.022509 -0.896739,1.852194 -2.002909,1.852194 m 0,-24.075438 -10.685192,0 c -1.470189,0 -2.671092,-0.556963 -2.671092,-1.23454 l 0,-3.704386 c 0,-1.358224 1.003115,-3.079819 2.231452,-3.824998 0,0 1.827535,-1.113158 4.447102,-1.113158 5.165166,0 7.701627,2.99608 7.701627,2.99608 0.905871,1.067067 1.647196,3.052932 1.647196,4.411155 0,1.357455 -1.203401,2.469847 -2.671093,2.469847 m 16.51107,18.435891 c -0.157902,0.05761 -0.322457,0.08296 -0.48369,0.08296 -0.536042,0 -1.039681,-0.29884 -1.243301,-0.785897 L 64.226109,37.006078 c -2.568872,-5.93301 -5.744426,-8.249212 -11.323464,-8.249212 -3.7008,0 -6.806544,2.121839 -6.834802,2.144886 -1.648861,1.142352 -4.22854,1.136976 -5.878236,0 -0.02748,-0.02303 -3.163082,-2.144886 -6.836456,-2.144886 -5.577382,0 -8.752938,2.316202 -11.325964,8.259198 L 12.316853,60.072066 C 12.050077,60.70739 11.272185,61.022362 10.587371,60.774994 9.9017306,60.529161 9.5601567,59.813174 9.8285946,59.175547 L 19.542254,36.111094 c 2.979433,-6.887915 7.109063,-9.823309 13.810897,-9.823309 4.583399,0 8.284198,2.530537 8.438778,2.635785 0.699774,0.487056 1.973818,0.487056 2.671926,0 0.155414,-0.105244 3.857878,-2.635785 8.437956,-2.635785 6.702656,0 10.831466,2.935394 13.808398,9.813322 l 9.719477,23.07444 c 0.265943,0.637627 -0.07313,1.353614 -0.762097,1.599447"
     id="path3550" /><g
     id="g10"
     transform="translate(-7.9298841,-7.2944294)"><polygon
       points="62.029,41.019 62.785,40.264 60.305,37.796 59.549,38.551 "
       id="polygon12" /></g><path
     d="M 74.797632,22.125589 C 86.155892,39.864868 80.982571,63.445383 63.246661,74.801486 45.517488,86.153276 21.93155,80.988176 10.572751,63.248055 -0.78173465,45.514671 4.3923255,21.924183 22.121499,10.572394 39.857409,-0.78370917 63.443147,4.392205 74.797632,22.125589 l 0,0 z M 78.63536,19.668335 C 65.923642,-0.18476788 39.526782,-5.9771544 19.666941,6.7388771 -0.18953066,19.452752 -5.9763916,45.850824 6.7358653,65.704769 19.451897,85.56461 45.848218,91.356154 65.705532,78.641741 85.565373,65.925709 91.351392,39.528176 78.63536,19.668335 l 0,0 z"
     id="path4"
     style="fill:#008000"
     inkscape:connector-curvature="0" /><g
     id="g6"
     transform="translate(-7.0469237,-8.1920762)"
     style="fill:#008000"><path
       d="m 58.031,40.078 -8.876,8.906 c -0.473,0.48 -0.633,1.181 -0.414,1.813 l -7.158,7.243 -10.041,2.312 -6.189,6.016 3.117,5.691 12.248,-12.121 -12.084,12.287 5.713,3.102 5.994,-6.219 2.266,-10.049 7.214,-7.189 c 0.633,0.22 1.341,0.06 1.814,-0.413 l 8.877,-8.91 -2.481,-2.469 z"
       id="path8"
       inkscape:connector-curvature="0"
       style="fill:#008000" /></g><g
     id="g14"
     style="fill:#008000"
     transform="translate(-7.6329242,-7.6038954)"><polygon
       points="58.414,39.686 60.895,42.162 61.65,41.407 59.17,38.935 "
       id="polygon16"
       style="fill:#008000" /></g><g
     id="g18"
     style="fill:#008000"
     transform="translate(-8.2497839,-6.9759746)"><path
       d="m 60.688,37.407 2.48,2.473 0.811,-0.827 c 0.566,-0.552 0.684,-1.409 0.295,-2.089 l 6.885,-7.58 -7.559,6.91 c -0.684,-0.388 -1.535,-0.262 -2.094,0.295 l -0.818,0.818 z"
       id="path20"
       style="fill:#008000"
       inkscape:connector-curvature="0" /></g><path
     style="fill:#ffffff"
     id="path3593"
     d="m 242.69822,75.358674 c -0.38182,1.02072 -0.95323,1.952984 -1.40701,2.94163 -0.2118,0.491131 -0.49031,0.969842 -0.59464,1.499831 -0.0693,0.390984 -0.17195,0.789387 -0.36269,1.142184 -0.0866,0.224199 -0.25245,0.411495 -0.33916,0.631014 -0.16521,-0.259977 0.0889,-0.145543 0.23109,-0.211776 0.0712,-0.03315 0.12042,-0.100813 0.18063,-0.151219 -7.5907,4.226419 -4.71227,2.97009 -3.36988,1.661706 0.43045,-0.419549 0.80764,-0.870766 1.16649,-1.351342 0.34301,-0.612727 0.81719,-1.16692 1.10997,-1.807055 0.0884,-0.159196 0.0818,0.07189 0.052,0.09909 -0.0102,0.0093 -0.26842,0.01738 -0.27289,0.01756 -0.36284,0.01575 -0.726,0.01413 -1.08901,0.0229 -1.16928,1.40054 -0.0854,0.07622 4.2976,-2.370948 0.0451,-0.02519 -0.0762,0.07111 -0.12081,0.09716 -0.13827,0.0807 -0.21682,0.06719 -0.30219,0.215591 -0.0575,-0.0585 -0.15748,-0.186766 -0.11908,-0.279633 0.0207,-0.05004 0.20753,-0.05394 0.16002,-0.02796 -1.48791,0.813687 -2.98655,1.60759 -4.47983,2.411384 0.23038,-0.129256 0.46633,-0.273225 0.5505,-0.542779 0.008,-0.02831 -0.006,-0.08323 0.0233,-0.08491 0.0554,-0.0032 0.0555,0.19063 0.0537,0.193102 -0.061,0.0817 -0.58893,0.02159 -0.62304,0.02095 -0.12745,0.01957 -0.2593,0.02016 -0.38236,0.0587 -0.19776,0.06194 -0.68046,0.347869 -0.85007,0.421582 -0.16137,0.07013 -0.3368,0.104914 -0.49724,0.177151 -0.15975,0.07192 -0.30678,0.169276 -0.46017,0.253914 1.33207,-0.76096 2.66414,-1.521919 3.9962,-2.282878 -0.14769,-0.07732 -1.14639,0.921834 -1.19211,0.894981 -0.0681,-0.03998 -0.0693,-0.141898 -0.1039,-0.212847 -0.11908,-0.357363 0.0781,-0.262114 0.31877,-0.386918 0.0928,-0.04812 0.34051,-0.241383 0.24929,-0.190309 -3.65802,2.048194 -5.495,3.250924 -3.74603,2.115168 0.64192,-0.415042 1.14683,-0.987266 1.69681,-1.508014 1.25172,-1.589543 1.33598,-1.287547 5.06983,-2.432734 0.12912,-0.0396 0.10976,2.190749 0.11026,2.316253 -0.009,1.962923 -0.0181,3.925917 0.008,5.888745 0.003,0.20581 0.004,0.411648 0.008,0.617431 0.003,0.145481 0.006,0.290998 0.0139,0.436316 0.004,0.06938 0.009,0.138902 0.0194,0.207526 0.002,0.01271 0.0304,0.02826 0.0188,0.03372 -4.79577,2.251034 -4.73732,3.890914 -4.70125,1.874319 0.093,-0.969725 -0.0692,-1.889698 -0.30053,-2.82671 -0.34279,-1.17804 -0.79665,-2.336544 -1.51099,-3.340239 -0.0855,-0.11818 -0.17005,-0.237092 -0.25657,-0.354539 -0.12311,-0.167103 -0.21594,-0.365118 -0.37796,-0.494844 -0.0201,-0.01611 -0.0976,0.03202 -0.0746,0.02033 4.58529,-2.330275 4.98767,-3.867049 4.40778,-1.990236 -0.18351,0.845942 -0.026,1.653235 0.26223,2.45106 0.0249,-0.179625 0.28417,0.871893 0.40662,0.677689 0.0275,-0.04357 0.0303,-0.177539 -0.0154,-0.153765 -1.5192,0.790361 -2.99305,1.664992 -4.48958,2.497488 0.26345,-0.790854 0.20367,-1.697004 0.20564,-2.526653 0.007,-0.69621 -0.0652,-1.396538 0.0867,-2.081705 0.2277,-1.949359 0.0101,-0.61249 4.84002,-2.421825 0.1187,-0.04447 0.11581,0.226633 0.15555,0.346997 0.20842,0.631255 0.309,1.310463 0.47819,1.953525 0.0626,0.281248 0.1295,0.561573 0.18779,0.843745 0.20898,1.011584 0.11122,0.743647 0.3785,1.73608 0.18517,0.687533 0.44292,1.347409 0.64406,2.029947 -0.17713,-0.584377 0.5454,1.664781 0.42565,1.027508 -0.0274,-0.146017 -0.0147,-0.482959 -0.14928,-0.419977 -1.52105,0.711933 -2.82859,1.834099 -4.35735,2.529319 -0.18021,0.08195 0.0582,-0.391643 0.0873,-0.587465 0.104,-1.972871 0.16283,-3.95769 0.0542,-5.931507 -0.0732,-0.738121 -0.20173,-1.432482 -0.58648,-2.071933 -0.14304,-0.237721 -0.0885,-0.265346 -0.18687,-0.146605 1.51219,-0.789676 2.98451,-1.660945 4.5366,-2.369029 0.11135,-0.0508 -0.0896,0.229492 -0.111,0.349996 -0.0361,0.203125 -0.0506,0.409881 -0.0607,0.615944 -0.0478,0.978799 0.10903,1.858835 0.29703,2.815505 0.32163,1.502632 0.87321,3.083048 1.96846,4.204685 0.0551,0.04159 0.40547,0.370896 0.56422,0.28606 0.1004,-0.05365 0.27721,-0.343851 0.17537,-0.293013 -1.4109,0.704286 -2.72423,1.596602 -4.14739,2.275751 -0.14929,0.07124 0.18728,-0.273867 0.26183,-0.421526 0.10433,-0.206679 0.18221,-0.425686 0.27332,-0.638529 0.43759,-1.705054 0.79838,-3.43971 1.07996,-5.178427 0.028,-0.222507 0.0601,-0.44453 0.0839,-0.667519 0.009,-0.08577 0.12331,-1.156218 0.12878,-1.158669 4.93034,-2.20869 4.57986,-3.611013 4.84533,-1.360954 0.0724,1.454097 0.0869,2.910801 0.0983,4.366512 0.004,0.159251 0.008,0.31851 0.012,0.477754 0.003,0.11656 0.008,0.233083 0.0103,0.349655 0.002,0.09595 -0.003,0.192228 0.004,0.287891 0.001,0.01795 0.0391,0.04101 0.0229,0.04891 -4.79952,2.341942 -4.77081,3.971764 -4.69967,1.947808 0.0274,-1.183313 0.0684,-2.369231 -0.007,-3.551188 -0.0737,-0.478477 -0.13988,-1.06813 -0.62554,-1.293844 -0.0801,-0.03721 -0.15659,-0.101303 -0.24488,-0.100975 -0.0848,3.14e-4 -0.15512,0.0685 -0.23268,0.102747 8.33326,-4.403772 4.36188,-3.185046 3.63529,-1.448715 -0.35688,0.852839 -0.44018,1.787975 -0.55493,2.693917 -0.23562,1.758889 -0.15786,3.504415 0.46645,5.171198 0.19202,0.299884 0.29905,0.668446 0.60375,0.879038 0.0568,0.03926 0.11468,0.103585 0.18336,0.0964 0.0615,-0.0064 0.18772,-0.158487 0.13305,-0.129492 -1.47543,0.782467 -2.93443,1.595519 -4.40164,2.393279 0.0649,-0.0739 0.14538,-0.1366 0.19486,-0.22162 0.35844,-0.61593 0.51274,-2.082885 0.62626,-2.807724 0.005,-0.756881 0.35747,-1.957167 0.18369,-2.6878 1.56718,-0.663236 3.07882,-1.47718 4.70155,-1.989706 0.16116,-0.0509 -0.004,0.337989 -0.007,0.506968 -0.004,0.22677 -0.0112,0.453483 -0.0143,0.68027 -0.0104,0.777779 -0.015,1.555658 -0.0117,2.333486 0.006,0.702591 0.014,1.405449 0.0342,2.107803 0.002,0.08188 0.085,0.20983 0.0113,0.245477 -1.51566,0.732626 -3.09382,1.328176 -4.64073,1.992256 0.29646,-1.59056 0.57228,-3.184153 0.85998,-4.77651 0.11834,-0.981245 0.48086,-1.97007 0.39065,-2.968032 5.73037,-2.702032 4.54777,-3.330502 4.17914,-0.03974 0.0509,0.599922 -0.23367,1.305195 -0.0207,1.88988 0.0194,-0.01384 0.0525,-0.01839 0.0583,-0.04153 0.38279,-1.528117 -2.83054,1.384707 -4.22527,2.117104 -0.13747,0.07218 0.22722,-0.21293 0.32588,-0.332815 0.10009,-0.121613 0.56323,-0.814404 0.64025,-0.928435 0.52515,-0.864536 0.91614,-1.797442 1.37468,-2.696943 0.9685,-1.866051 2.34102,-1.710686 5.0878,-2.871949 0.0955,-0.04037 0.0958,0.183865 0.14439,0.275456 0.0338,0.06374 0.0685,0.12701 0.10269,0.190515 0.24492,0.74546 0.47512,1.49317 0.6843,2.249776 0.74025,2.655913 0.91566,0.843412 -4.31172,3.412599 0.0439,-1.110828 0.0846,-2.230892 -0.0461,-3.336447 -0.0309,-0.27579 -0.23846,-1.761669 -0.44821,-1.930777 -0.072,-0.05805 -0.0206,0.309669 0.0631,0.270202 1.52578,-0.719903 2.97,-1.601303 4.455,-2.401955 -0.2144,1.66695 -0.17639,3.357896 -0.0266,5.028325 0.0585,0.775535 0.16507,1.547947 0.29711,2.314264 0.091,0.528405 0.12927,0.889227 0.2021,0.820879 -1.53625,0.761667 -3.00296,1.683605 -4.60873,2.285001 -0.17598,0.06591 0.0348,-0.377024 0.0125,-0.56361 -0.0343,-0.286924 -0.11441,-0.566619 -0.18131,-0.847737 -0.31597,-1.327668 -0.72392,-2.621789 -1.14806,-3.917913 -0.69357,-2.274032 -1.76055,-4.380052 -3.02601,-6.380925 -0.006,0.237956 -0.34885,-0.72962 -0.57017,-0.575077 -0.0879,0.06137 -0.1367,0.365298 -0.04,0.319086 1.4715,-0.703058 2.78535,-1.723706 4.29106,-2.350177 0.19648,-0.08175 -0.11759,0.411296 -0.13973,0.622951 -0.0297,0.284505 -0.0101,0.572023 -0.0152,0.858035 0.39488,2.650448 1.39089,5.177861 2.34789,7.668861 0.49726,1.369176 1.08226,2.708653 1.84961,3.94702 1.81116,0.268974 0.40123,0.03 -4.36266,2.299178 -0.0995,0.0474 0.18042,-0.1388 0.23067,-0.23689 0.0833,-0.16264 0.11965,-0.34618 0.15947,-0.52454 0.14619,-0.654989 0.16666,-1.086488 0.23403,-1.763605 0.14371,-1.853097 0.152,-3.712742 0.13789,-5.570196 -0.0642,-2.726393 -0.26113,-1.783534 4.68849,-3.623321 0.17821,-0.06624 0.0719,0.37345 0.10214,0.561144 0.0451,0.279796 0.0828,0.560758 0.12412,0.841138 0.41824,2.253758 0.64291,4.538089 1.05732,6.793094 0.12777,0.668704 0.21237,1.357479 0.42448,2.008028 0.0351,0.107581 0.0792,0.212604 0.13153,0.312947 0.0209,0.04013 0.12655,0.08429 0.0862,0.10486 -1.49942,0.764941 -3.03797,1.450621 -4.55695,2.175921 0.0597,-0.13212 0.14032,-0.25666 0.1791,-0.39636 0.12151,-0.4377 0.24974,-1.4823 0.29214,-1.872568 0.13181,-1.213202 0.18742,-2.43239 0.24368,-3.650734 0.0617,-1.782161 0.15234,-3.568916 -0.11229,-5.338353 -0.89697,-1.593726 -0.24295,-0.354409 4.59211,-2.35253 0.11562,-0.04778 -0.0652,0.242291 -0.0818,0.366292 -0.0272,0.203237 -0.0475,0.408131 -0.0493,0.613174 -0.004,0.496158 0.0782,1.150746 0.12759,1.633327 0.14236,1.821154 0.70136,3.523162 1.36527,5.207488 0.0675,0.18897 0.12426,0.38217 0.20265,0.566908 0.0293,0.06912 0.32677,0.629986 0.38711,0.728039 0.0353,0.05731 0.18004,0.130219 0.12065,0.16186 -5.11696,2.726127 -5.78146,3.486787 -4.48683,2.082021 0.26947,-1.594076 -0.0572,-3.188333 -0.5008,-4.718272 -0.25401,-0.628804 -0.51125,-1.249707 -0.82524,-1.850611 -0.021,-0.04029 -0.28907,-0.612365 -0.4192,-0.676377 -0.0417,-0.02052 -0.0605,0.07063 -0.0907,0.105943 7.96388,-4.217036 4.4405,-3.638434 4.20119,-1.589966 -0.084,0.718675 0.0628,1.381534 0.19996,2.08313 0.34765,1.074081 0.56136,2.280183 1.20328,3.229889 0.14355,0.08331 0.16754,0.307885 0.3096,0.397448 0.024,0.0151 0.0537,-0.01802 0.0805,-0.02703 -1.49121,0.761816 -2.95939,1.570508 -4.47364,2.285447 -0.0969,0.04574 0.14928,-0.161178 0.1869,-0.261495 0.0647,-0.172474 0.076,-0.360489 0.11395,-0.540734 0.21376,-2.035625 0.18353,-4.089184 0.15752,-6.133298 -0.0729,-2.911852 -0.60593,-2.017053 4.61127,-3.725757 0.2062,-0.06753 -0.0163,0.434023 -0.009,0.650861 0.0114,0.322222 0.0438,0.643358 0.0656,0.965037 0.22301,2.755546 0.84763,5.46374 1.66466,8.099242 0.26698,0.863761 0.5265,1.74722 0.89908,2.574199 0.0738,0.16369 0.14936,0.3299 0.25814,0.47274 0.042,0.0552 0.24153,0.0704 0.18051,0.10329 -1.47848,0.79718 -3.01102,1.48976 -4.51653,2.23465 0.0602,-0.12368 0.14841,-0.23731 0.1807,-0.37102 0.10748,-0.44501 0.16318,-1.58976 0.17954,-1.96926 0.055,-1.274739 0.0504,-2.552992 0.0554,-3.828578 -0.004,-1.901887 -0.22862,-3.782174 -0.81013,-5.592048 -1.16474,-1.534511 -0.47062,-0.515888 4.50881,-2.658869 0.14732,-0.0634 0.0696,0.313315 0.11392,0.46745 0.0711,0.247265 0.14714,0.493257 0.23203,0.736125 0.2423,0.693225 0.5095,1.37754 0.7553,2.069531 0.70378,2.035671 1.6284,3.984519 2.46894,5.965561 0.0269,-0.443844 0.28336,0.828919 0.43356,0.624733 0.0738,-0.100295 0.0526,-0.420057 -0.0608,-0.368544 -1.49414,0.679031 -2.78837,1.773369 -4.32116,2.359959 -0.234,0.0896 0.078,-0.49534 0.10076,-0.74485 0.032,-0.350752 0.0424,-0.703149 0.0636,-1.054725 0.18905,-2.067472 -0.28999,-4.047903 -0.91235,-5.996283 -1.01266,-2.636144 -1.76162,-1.470665 3.87766,-3.510834 0.18981,-0.06867 -0.16092,0.376241 -0.18484,0.576677 -0.0392,0.328281 -0.002,0.661216 -0.002,0.991824 0.14985,2.760054 0.82607,5.437113 1.47882,8.108485 0.107,0.423277 0.29126,1.193786 0.43799,1.634446 0.0492,0.14787 0.0823,0.30888 0.17674,0.43286 0.0286,0.0376 0.0955,-0.15165 0.0528,-0.13145 -1.50229,0.71101 -2.88992,1.68858 -4.46485,2.2196 -0.23675,0.0798 0.0594,-0.49614 0.0891,-0.74421 -0.14386,-2.54712 -0.92051,-5.001991 -1.8208,-7.371336 -0.30741,-0.514302 -1.13902,-2.883961 -1.71461,-3.079651 1.52181,-0.774852 3.01268,-1.613733 4.56544,-2.324557 0.0966,-0.04423 -0.10537,0.188454 -0.12668,0.292566 -0.0404,0.197435 -0.0441,0.400794 -0.0564,0.601946 -0.0464,0.757465 -0.0387,1.520034 -0.0347,2.278384 -0.0185,0.671235 0.0357,1.34316 0.0303,2.01409 -9e-4,0.112823 0.0739,0.277988 -0.0218,0.337776 -4.72432,2.952032 -3.72005,4.08186 -5.04398,2.134294 -0.84602,-1.73023 -1.67757,-3.468242 -2.54616,-5.187388 -0.29389,-0.414672 -0.44074,-0.910433 -0.70342,-1.341706 -0.0547,-0.08972 -0.29816,-0.18664 -0.20654,-0.238042 1.53861,-0.745274 3.07722,-1.490549 4.61584,-2.235823 -0.0346,0.02029 -0.10147,0.02081 -0.10388,0.06087 -0.009,0.15402 0.0485,0.304771 0.0727,0.457156 0.44254,1.527639 1.00971,3.017567 1.659,4.468729 0.0143,0.02485 0.25608,0.504317 0.37604,0.544826 0.0396,0.01338 0.10251,-0.126212 0.0654,-0.107043 -1.50549,0.776726 -2.97049,1.631353 -4.48623,2.387896 -0.0752,0.03756 0.10432,-0.135496 0.13238,-0.214774 0.0415,-0.117211 0.0487,-0.243849 0.0731,-0.365774 0.14623,-1.251489 -0.54401,-2.223338 -1.44916,-3.006571 -1.14104,-0.690636 -2.40105,-1.17105 -3.68948,-1.501556 -0.17776,-0.268871 -0.67456,-0.151725 -0.881,-0.39941 -1.19506,-1.43386 4.58194,-3.154617 4.69153,-3.208163 0.18747,-0.0916 1.62567,0.224312 1.80569,0.258868 3.64155,0.938087 7.21495,2.10228 10.80938,3.201273 2.10551,0.525774 4.16039,1.269269 6.29293,1.686405 0.982,0.192086 1.45282,0.231235 2.42224,0.346719 1.74214,0.270079 3.31054,0.09506 4.98803,-0.373876 1.70187,-0.777561 4.45715,-2.344153 -3.053,1.819115 -0.0916,0.05075 0.1704,-0.121628 0.25436,-0.184135 0.25488,-0.189759 0.12041,-0.131146 0.31656,-0.198155 0.0321,0.10767 0.14792,0.223142 0.0964,0.323011 -0.0435,0.08436 -0.1898,0.01607 -0.28228,0.03741 -0.17462,0.04029 -0.34293,0.104891 -0.51711,0.147026 -1.19746,0.289683 -2.37621,0.623948 -3.56583,0.949521 -3.98486,1.293463 -8.07576,2.170339 -12.20352,2.853655 -2.50228,0.302998 -5.01293,0.738928 -7.53714,0.834234 -0.278,0.0105 -1.68397,-0.03888 -2.0513,-0.05073 -0.26769,-0.259224 -0.73648,0.106443 -1.03836,-0.06421 -0.10345,-0.05849 -0.30292,-0.225208 -0.20461,-0.291973 1.53755,-1.044118 3.1466,-1.988987 4.80346,-2.831026 0.21953,-0.111568 0.4924,0.0105 0.73862,0.01447 0.3917,0.0063 0.78342,0.01092 1.17513,0.01638 4.24096,0.194484 8.45714,-0.21676 12.65984,-0.737367 4.16494,-0.532948 8.30834,-1.217367 12.35891,-2.333226 0.72743,-0.254885 1.5,-0.331025 2.23855,-0.540221 2.1402,-0.606217 5.22356,-2.592802 -2.7157,1.897 0.0394,0.152346 0.19444,0.319326 0.11829,0.457039 -0.0606,0.109591 -0.25038,0.01 -0.3756,0.0083 -0.22287,-0.003 -0.44549,-0.01647 -0.6683,-0.02232 -1.1351,-0.02983 -2.23958,-0.01944 -3.37365,0.05434 -3.22927,0.405227 -6.4709,0.721253 -9.69145,1.194643 -2.30717,0.299642 -4.63111,0.448226 -6.95543,0.525273 -2.69545,0.01264 -3.71961,0.905275 3.2433,-3.033809 0.21522,-0.121754 0.49433,0.02054 0.74159,0.01818 0.34142,-0.0033 0.68247,-0.02336 1.02371,-0.03505 3.28086,-0.173152 6.56171,-0.322261 9.82275,-0.740029 2.21709,-0.185792 4.38186,-0.668619 6.5361,-1.196766 0.12782,-0.05416 0.50303,-0.233026 0.38347,-0.162479 -1.45499,0.8585 -2.97488,1.609351 -4.39264,2.528037 -0.0893,0.05783 0.091,0.265961 -10e-4,0.319055 -0.0634,0.0365 -2.24684,-0.138906 -2.3328,-0.142681 -2.56671,-0.07846 -5.13517,-0.072 -7.70277,-0.05827 -1.16003,-0.04009 -2.32491,0.07388 -3.48457,0.03428 -1.7471,-0.05965 0.40335,-0.05224 -0.94722,-0.04914 -0.15132,-0.09218 -0.32141,0.07811 -0.47364,0.03471 -0.21648,-0.06172 -0.41946,-0.602207 -0.2898,-0.694791 3.78561,-2.703043 3.09298,-2.546278 5.34752,-2.82975 1.70308,-0.378064 3.44533,-0.523981 5.14834,-0.910054 3.31998,-0.482029 4.98812,-2.192976 -1.83783,2.369613 -1.55894,-0.0747 -3.11808,-0.104288 -4.6766,-0.181911 -1.34466,-0.08987 -2.69145,-0.174983 -4.02027,-0.40938 -0.0781,-0.02024 -0.1784,-0.0025 -0.23428,-0.06071 -1.26612,-1.317936 2.88073,-2.282254 4.49462,-3.139787 0.1033,-0.05489 1.37712,0.008 1.51533,0.0083 1.33892,0.0015 2.67813,0.0098 4.01692,-0.01308 2.38427,0.003 2.33316,-0.73068 -3.5513,3.081875 -0.10075,0.06527 -0.23984,-0.01129 -0.35983,-0.01499 -0.20183,-0.0062 -0.40373,-0.0099 -0.60559,-0.01485 -2.15944,-0.103743 -4.31827,-0.223419 -6.4748,-0.392806 -0.86366,-0.07232 -1.72762,-0.140906 -2.59223,-0.20089 -0.18821,-0.01306 -0.37646,-0.02554 -0.56471,-0.03784 -0.13068,-0.0085 -0.49919,0.05069 -0.3921,-0.0247 1.50163,-1.057135 3.09464,-1.97811 4.64195,-2.967166 0.24636,0.05763 0.48963,0.130594 0.73907,0.172903 0.86653,0.146972 1.74249,0.23148 2.61356,0.348516 2.36359,0.31757 4.72502,0.539193 7.10203,0.729146 5.50285,0.399436 11.02161,0.469328 16.53656,0.488902 2.91623,-0.0019 5.83269,-0.01307 8.74817,-0.08314 0.1891,-0.0042 0.37821,-0.0081 0.5673,-0.01275 0.1365,-0.0033 0.27305,-0.0054 0.40946,-0.01114 0.068,-0.0029 0.25918,-0.05409 0.20372,-0.01461 -1.59229,1.133272 -2.98071,2.897167 -4.91104,3.202949 -0.207,0.03279 -0.41801,0.03095 -0.62702,0.04642 -2.32272,0.197379 -4.62973,0.572754 -6.95135,0.799679 -3.9521,0.322197 -7.91336,0.480035 -11.87582,0.602435 -2.93454,0.114128 -5.86603,0.14307 -8.79904,-0.0034 -0.24516,-0.09512 -1.37789,-0.05811 -1.57534,-0.317738 -0.10811,-0.142158 -0.33295,-0.402147 -0.18536,-0.502708 4.19793,-2.860147 3.12098,-2.814269 5.56637,-2.616821 3.4995,0.492529 7.02238,0.802419 10.54366,1.101164 4.29793,0.342555 8.60808,0.508281 12.91869,0.560495 1.31269,0.07645 2.63291,-0.05897 3.94521,-0.0095 1.29395,0.04875 -0.0852,0.05832 0.70732,0.04709 -1.58899,1.034497 -3.10617,2.188699 -4.76695,3.10349 -0.26426,0.145556 -0.60377,0.0013 -0.90484,0.02063 -0.4269,0.02738 -0.85101,0.09 -1.27779,0.119357 -2.03865,0.140257 -4.06755,0.273141 -6.1032,0.466263 -5.51547,0.421659 -11.02165,0.968888 -16.52931,1.485485 -1.78112,0.242443 -3.56501,0.465304 -5.35148,0.664701 -0.8674,0.09682 -1.70485,0.15175 -2.53681,0.420398 1.52857,-0.972177 2.99578,-2.048332 4.58571,-2.91653 0.19206,-0.104879 0.43585,0.04031 0.65418,0.05524 0.33035,0.02258 0.66091,0.04261 0.99171,0.05728 1.60247,0.07103 3.20626,0.07885 4.80993,0.092 2.46902,0.06393 4.93968,-0.06387 7.39248,-0.349976 0.9335,-0.108888 1.85968,-0.273547 2.791,-0.39975 1.02523,-0.178764 2.05385,-0.363585 3.0641,-0.61665 0.10659,-0.0267 0.40821,-0.148544 0.31844,-0.08518 -1.45256,1.025221 -2.94829,1.987867 -4.42244,2.981801 -2.20146,-0.07933 -4.3928,0.147168 -6.58486,0.322894 -2.56087,0.265324 -5.12639,0.478441 -7.69377,0.668702 -2.32884,0.14325 -3.06169,1.170851 3.47585,-3.078505 0.14829,-0.09639 0.35371,-0.0049 0.53053,-0.0092 0.70214,-0.01706 1.40417,-0.03831 2.10629,-0.05601 3.79797,-0.05836 7.59655,-0.05673 11.39479,-0.0873 2.73129,-0.02111 5.46276,-0.02946 8.19373,-0.07905 0.492,-0.01648 0.98477,-0.0051 1.47665,-0.0265 0.0485,-0.0021 0.18432,-0.04032 0.14499,-0.01195 -4.39665,3.171468 -2.63393,3.164819 -4.77651,3.087091 -2.06818,-0.04979 -4.1386,-0.08536 -6.20599,-0.0017 -1.71043,0.08931 -3.41912,0.207439 -5.1282,0.318799 -0.0826,0.01255 -0.3156,0.08644 -0.24779,0.03764 1.46886,-1.057123 2.94096,-2.113603 4.47231,-3.077981 0.0412,-0.02597 2.09454,0.0286 2.2611,0.02929 1.01881,0.112155 2.09849,-0.180464 3.1019,0.04533 0.039,0.0018 0.1488,-0.01731 0.11704,0.0054 -1.45782,1.044123 -2.93528,2.060698 -4.41532,3.07309 -0.0758,0.05182 -0.15936,0.09797 -0.24905,0.117499 -0.52084,0.113378 -1.13346,0.06837 -1.66296,0.09277 -1.30448,0.03565 -2.60949,0.04459 -3.91427,0.06362 -0.20526,0.148673 -0.51575,-0.102005 -0.73195,0.01113 -0.0629,0.03294 -0.14418,0.232758 -0.0833,0.196184 1.51663,-0.91077 2.94237,-1.971393 4.48411,-2.838978 0.10276,-0.05783 0.21788,0.09045 0.32873,0.130644 0.18678,0.06773 0.37594,0.128697 0.56391,0.193045 1.71149,0.580805 3.5043,0.838313 5.2518,1.270726 1.13011,0.207401 2.21228,0.615981 3.35495,0.767339 2.11709,0.250722 0.41744,0.210499 -4.05274,3.140617 -0.0156,0.0102 -1.3694,-0.0485 -1.5255,-0.0518 -3.14068,-0.0212 -6.26802,-0.3465 -9.40306,-0.52205 -3.13814,-0.18101 -6.27444,-0.42923 -9.41459,-0.56505 -0.27226,-0.005 -0.54449,-0.0113 -0.81677,-0.0139 -0.20836,-0.002 -0.41678,-0.003 -0.62512,4.9e-4 -0.11421,0.002 -0.23369,-0.0183 -0.34225,0.0172 -0.0288,0.009 -0.009,0.10627 0.0164,0.0893 4.85118,-3.267204 2.6779,-3.227854 5.15862,-3.129189 3.22948,0.0823 6.46026,0.09773 9.69062,0.111201 3.885,0.01017 7.77009,-0.006 11.65496,-0.03775 1.58765,-0.01784 3.17575,-0.02915 4.76295,-0.0733 1.98374,-0.0568 2.04295,-0.782155 -4.13306,2.972598 -0.091,0.0553 -0.19842,-0.0806 -0.3027,-0.10232 -0.14708,-0.0306 -0.29831,-0.0358 -0.44746,-0.0537 -0.24426,-0.0535 -0.48852,-0.10703 -0.73278,-0.16055 -3.08699,-0.514061 -6.21405,-0.725904 -9.33591,-0.89301 -3.36968,-0.14347 -6.74303,-0.173156 -10.11534,-0.158627 -0.62203,0.01542 -1.2444,0.0087 -1.86646,0.02127 -0.18433,0.0037 -0.36862,0.01027 -0.55277,0.01925 -0.0836,0.0041 -0.31785,0.06958 -0.25042,0.01993 4.39206,-3.234356 2.71576,-3.610346 4.88786,-2.950211 2.50462,0.682933 5.06673,1.108275 7.63416,1.470354 3.49518,0.397018 7.01973,0.597087 10.53729,0.526842 1.71129,0.02335 3.3771,-0.365281 5.05409,-0.644702 1.5593,-0.634294 5.29134,-3.307234 -3.9414,2.517094 -0.0455,0.0287 -0.0788,0.0955 -0.13257,0.0922 -0.18548,-0.0113 -0.35765,-0.10496 -0.5413,-0.13322 -0.31641,-0.0487 -0.63698,-0.0647 -0.95547,-0.0971 -4.92123,-0.341634 -9.84717,-0.576535 -14.77488,-0.801268 -5.98485,-0.109104 -11.96885,-0.261138 -17.94543,-0.604572 -1.60265,-0.05739 -3.19351,-0.253288 -4.79253,-0.360242 -0.67938,-0.04544 -1.32148,-0.0875 -1.98702,-0.226451 -1.56332,-1.379795 -0.55722,-0.388548 4.51117,-3.188879 0.22837,-0.126178 0.52216,-0.0092 0.78272,0.0043 0.88116,0.04579 1.76081,0.122029 2.6385,0.212621 0.59904,0.06183 1.19552,0.146392 1.79329,0.219588 4.67235,0.537058 9.36359,0.883657 14.06011,1.117598 1.71335,0.130044 3.41627,0.111392 5.12299,-0.06075 0.94524,-0.09534 1.79586,-0.207493 2.69148,-0.516234 1.675,-0.853738 4.07274,-2.525777 -3.59119,2.095377 -0.0397,0.02395 0.35824,0.219465 -0.1079,0.0614 -0.14023,-0.04756 -0.26752,-0.127053 -0.40129,-0.190579 -1.93431,-0.546897 -3.81285,-1.240944 -5.75407,-1.768803 -2.32827,-0.60077 -4.60801,-1.372559 -6.91685,-2.039984 -5.50525,-1.591432 1.63456,0.564044 -3.74816,-1.077091 -0.61028,-0.200494 -1.21875,-0.406594 -1.83084,-0.601482 -1.44906,-0.461371 -1.92199,-0.560328 -3.32413,-1.069753 -1.38991,-0.504984 -2.73327,-1.115941 -4.08233,-1.718386 -1.39955,-0.672857 -2.76338,-1.432039 -4.04188,-2.314942 -1.81239,-1.30787 0.78125,-1.345237 4.17835,-3.253301 0.13086,-0.0735 0.26718,0.138543 0.40799,0.190511 0.56729,0.209373 1.15118,0.370859 1.72359,0.565804 0.58262,0.208103 1.15858,0.43589 1.74785,0.624309 1.3051,0.417299 3.79234,1.074509 5.03422,1.389001 3.8461,0.973979 7.7159,1.811178 11.59956,2.6193 7.35422,1.477679 14.77103,2.625836 22.23756,3.343567 2.80265,0.198024 5.6063,0.367572 8.40735,0.588726 0.0995,0.01283 0.2247,-0.0295 0.29844,0.0385 1.36118,1.255169 -2.93033,2.315984 -4.60434,3.107156 -0.20234,0.09563 -0.44735,-0.01503 -0.67109,-0.01969 -0.81677,-0.01701 -1.63367,-0.02732 -2.45047,-0.04308 -5.9655,-0.191935 -11.93642,-0.501859 -17.90682,-0.471606 -1.96043,0.0099 -3.92003,0.08313 -5.88004,0.124694 -6.09885,0.147686 -12.16622,0.796024 -18.23332,1.379686 -5.05162,0.485972 -10.09919,0.987147 -15.14507,1.529807 -5.09016,0.531408 -10.18834,0.99539 -15.29687,1.308978 -2.75734,0.0918 -4.09756,1.09698 2.85789,-2.975541 0.18986,-0.111165 0.43631,0.05811 0.65545,0.07764 0.38265,0.03411 0.76633,0.05549 1.14949,0.08324 6.02301,0.506487 12.04735,0.994626 18.07405,1.455555 7.82599,0.608744 15.66358,1.01517 23.51059,1.201566 3.68958,0.0762 7.38063,0.10425 11.07062,0.0431 0.067,0.0597 1.82807,-0.0378 1.91306,0.009 0.0926,0.0515 0.2733,0.19326 0.18809,0.25621 -1.45911,1.07797 -3.03915,1.98183 -4.55873,2.97274 -2.34887,0.0914 -4.69905,0.13089 -7.05027,0.17226 -5.93576,0.29945 -11.82222,1.17806 -17.65374,2.29313 -3.2985,0.70836 -6.6033,1.42984 -9.79481,2.53648 -0.16163,0.0697 -0.63697,0.29783 -0.4849,0.20916 1.4253,-0.83103 2.93781,-1.51827 4.30757,-2.43799 0.11167,-0.075 -0.16178,-0.27863 -0.0911,-0.39311 0.0603,-0.0978 0.22966,-0.0246 0.34435,-0.0172 0.6359,0.041 1.26551,0.15058 1.89786,0.22913 4.44197,0.65316 8.7984,1.77209 13.11098,3.00062 3.87688,0.99474 7.62527,2.41153 11.47298,3.503755 1.25397,0.42115 2.5815,0.64183 3.76162,1.25848 0.32065,0.17069 0.442,0.50783 0.45875,0.85125 0.002,0.0851 -0.002,0.17022 -0.005,0.25525 0,0 -4.74311,2.34443 -4.74311,2.34443 l 0,0 c 0.0153,-0.0709 0.029,-0.14212 0.0376,-0.21421 0.025,-0.19781 0.0718,-0.26026 -0.14145,-0.36335 -1.09705,-0.60383 -2.3481,-0.86011 -3.51032,-1.3048 -3.75222,-1.21345 -7.44023,-2.62926 -11.25676,-3.639635 -4.36842,-1.21365 -8.78476,-2.32941 -13.31095,-2.75707 -0.22418,-0.0177 -2.29486,-0.0917 -2.53181,-0.27341 -1.86853,-1.43308 3.01781,-2.83081 4.74512,-3.40075 3.11895,-0.93561 6.31316,-1.59125 9.50307,-2.23283 5.89199,-1.06471 11.83159,-1.89572 17.80685,-2.31536 2.43191,-0.10463 4.90197,-0.10907 7.30541,-0.50966 -1.40193,0.95939 -2.85066,1.85374 -4.20579,2.87817 -0.0639,0.0483 0.18443,0.11634 0.14935,0.18838 -0.006,0.0116 -1.76664,-0.16212 -1.79504,-0.0999 -3.56887,-0.0888 -7.13793,-0.17443 -10.70486,-0.32614 -7.79724,-0.3489 -15.59169,-0.75037 -23.37641,-1.32102 -6.17591,-0.45902 -12.35881,-0.84421 -18.54672,-1.0994 -0.41305,-0.009 -0.82604,-0.0206 -1.23913,-0.0269 -0.23667,-0.004 -0.88201,0.15982 -0.71008,-0.003 3.52434,-3.334377 2.66099,-3.072683 5.45588,-3.090268 4.92635,-0.135489 9.84332,-0.487071 14.75038,-0.937684 4.97192,-0.454201 9.94272,-0.915866 14.91585,-1.356765 3.10955,-0.275682 9.00464,-0.824436 12.04963,-1.026773 2.05826,-0.13677 4.12014,-0.212082 6.18022,-0.318124 2.01737,-0.0767 4.03366,-0.191569 6.05213,-0.230099 1.6767,-0.03201 3.35398,0.01659 5.03099,0.01854 4.48527,0.0052 8.97027,0.01789 13.45557,0.02598 0.15126,-0.0033 2.19388,-0.04621 2.58184,-0.06183 0.24001,-0.0097 0.91318,-0.184847 0.71934,-0.04298 -1.32957,0.973112 -2.80447,1.730249 -4.20671,2.595373 0.0986,0.137555 0.26276,0.246678 0.29581,0.412666 0.0149,0.075 -0.14916,-0.03382 -0.22375,-0.05073 -2.67161,-0.362561 -5.35934,-0.562056 -8.03919,-0.850777 -7.37223,-0.871098 -14.69155,-2.152175 -21.97493,-3.579284 -6.3637,-1.231962 -12.74149,-2.475826 -18.97321,-4.278415 -0.20686,-0.05439 -1.4716,-0.401893 -1.84147,-0.456307 -0.10667,-0.01569 -0.40981,0.07118 -0.32337,0.0067 5.20607,-3.880516 2.90059,-3.971733 4.4484,-2.709187 1.19185,0.910831 2.48663,1.679046 3.83842,2.328259 0.77748,0.373752 1.65137,0.805614 2.44342,1.13298 2.16543,0.895006 4.42125,1.538223 6.64158,2.276462 3.55929,1.087055 7.14344,2.103284 10.74509,3.041131 2.00442,0.526296 3.97361,1.169057 5.96373,1.740791 0.3224,0.154242 0.63425,0.258439 0.8641,0.558911 0.0815,0.106581 0.24688,0.299512 0.13813,0.378125 -1.79158,1.295081 -3.35139,2.477315 -5.33919,3.117604 -2.50762,0.562097 -5.11219,0.406499 -7.65588,0.251309 -4.7181,-0.294138 -9.43208,-0.658243 -14.13964,-1.089503 -1.3338,-0.11529 -2.02338,-0.196034 -3.31499,-0.236116 -3.07491,-0.09542 -3.66831,1.098652 1.89426,-2.842126 0.60225,0.141269 1.20171,0.198478 1.81642,0.270084 1.53001,0.178226 3.05692,0.389579 4.59578,0.481784 5.90673,0.423146 11.822,0.641873 17.74271,0.736139 5.06863,0.175368 10.13781,0.330798 15.2056,0.529862 0.37221,0.03836 1.28266,0.07827 1.70578,0.27521 0.16463,0.07663 0.56974,0.215113 0.43136,0.332689 -3.21884,2.734959 -2.78024,2.741419 -4.89124,3.093979 -1.63432,0.22021 -3.2616,0.52748 -4.92069,0.45539 -3.51981,-0.0212 -7.04118,-0.22551 -10.53971,-0.61387 -2.6344,-0.36049 -5.25056,-0.818409 -7.85758,-1.340754 -2.15272,-0.137746 -0.80295,0.05015 3.63007,-3.123802 0.0547,-0.03919 0.1339,0.01464 0.20112,0.01818 0.5015,0.02644 0.78327,0.02102 1.32383,0.03044 0.32545,0.0057 0.65087,0.01318 0.97631,0.01977 3.33268,0.05784 6.66556,0.118442 9.99555,0.272025 3.20377,0.151165 6.41098,0.351439 9.58953,0.794165 0.38883,0.05864 0.88828,0.124018 1.28566,0.213851 0.11994,0.02712 0.45034,0.02089 0.35538,0.09902 -4.31969,3.554045 -2.49101,3.129235 -4.47865,3.057255 -1.52008,-0.0456 -3.04121,-0.0546 -4.56177,-0.0729 -3.84869,-0.0321 -7.69758,-0.048 -11.5464,-0.0415 -3.316,0.01 -6.63199,0.0274 -9.94774,0.0701 -2.33637,0.0435 -1.0104,0.15904 3.21593,-3.152063 0.0237,-0.01857 0.005,0.07464 0.0332,0.08398 0.0945,0.03084 0.19809,0.01795 0.29736,0.02386 0.19975,0.01189 0.39984,0.01756 0.59958,0.02955 0.25935,0.01557 0.51843,0.03541 0.77764,0.05312 3.08296,0.236271 6.16446,0.495332 9.25169,0.677785 3.19755,0.158955 6.39517,0.452467 9.59905,0.348381 0.32581,-0.0059 0.96556,-0.01263 1.32556,-0.03417 0.0927,-0.0055 0.35018,-0.08649 0.27707,-0.02921 -4.02314,3.152307 -2.50627,3.412637 -4.47764,3.001117 -1.10019,-0.24552 -2.16252,-0.64198 -3.26924,-0.86272 -1.78153,-0.40702 -3.58308,-0.7342 -5.33158,-1.27846 -0.21158,-0.07416 -0.42928,-0.132738 -0.63474,-0.222479 -0.15413,-0.06732 -0.56184,-0.131003 -0.44001,-0.246953 3.65961,-3.482829 2.5603,-3.219889 5.00466,-3.180745 1.2913,0.01108 2.58381,0.0052 3.87336,-0.06959 0.44109,-0.03186 0.78318,-0.04628 1.21844,-0.116998 0.14717,-0.02391 0.29001,-0.0705 0.43706,-0.09516 0.11827,-0.01984 0.4516,-0.112781 0.35773,-0.03815 -3.96996,3.15667 -2.52003,3.558568 -4.26079,3.04552 -0.99308,-0.06239 -1.99186,-0.01003 -2.98601,-0.03102 -0.44833,0.0015 -0.89666,0.0033 -1.345,0.0048 -0.1896,6.29e-4 -0.3792,0.0023 -0.5688,0.0016 -0.14835,-5.43e-4 -0.55704,0.09197 -0.44501,-0.0053 3.63758,-3.157109 2.35267,-3.136083 4.24182,-3.101998 1.67148,-0.0563 3.34123,-0.150983 5.012,-0.224149 2.11873,-0.06225 4.23861,-0.02005 6.35741,-0.08677 2.08941,-0.07051 0.625,-0.09506 -3.72207,3.086418 -0.0299,0.02188 -0.0734,-0.01052 -0.11044,-0.01246 -0.21164,-0.01109 -0.6193,-0.01447 -0.80245,-0.01762 -0.19926,-0.0034 -0.39851,-0.0074 -0.59777,-0.01104 -2.66462,-0.05323 -5.32992,-0.05789 -7.99499,-0.06271 -3.83649,-0.001 -7.67496,0.02007 -11.50813,0.193641 -0.733,0.04303 -1.47252,0.07359 -2.20283,0.159043 -0.19062,0.0223 -0.71313,0.218542 -0.56827,0.09264 3.87842,-3.371072 2.46561,-3.053101 4.86414,-3.134832 2.5268,-0.119682 5.04674,-0.336048 7.56378,-0.586195 1.49072,-0.126292 2.97576,-0.285901 4.47082,-0.349774 0.47246,-0.02018 1.42823,-0.06344 1.94453,-0.02434 0.18759,0.01421 0.37119,0.06154 0.55679,0.09231 -1.37786,1.036634 -2.7307,2.10738 -4.13358,3.109902 -0.0826,0.05903 -0.19924,0.03917 -0.29905,0.05775 -0.14936,0.02781 -0.29894,0.05436 -0.44843,0.08142 -0.83172,0.150512 -1.66454,0.295943 -2.50371,0.399883 -3.36414,0.412096 -6.741,0.733062 -10.13646,0.633321 -1.65093,7.01e-4 -3.30507,0.02507 -4.95572,-0.01578 -0.35435,-0.0088 -0.70917,-0.01706 -1.06233,-0.04741 -0.26196,-0.02252 -0.96175,0.07984 -0.78092,-0.111021 1.14919,-1.212885 2.59067,-2.110773 3.886,-3.166159 2.52712,-0.356416 5.09222,-0.414905 7.61816,-0.792169 5.5132,-0.453818 11.02228,-0.947112 16.52738,-1.49057 2.09033,-0.215785 4.18225,-0.395613 6.27399,-0.594066 0.45298,-0.04298 0.90418,-0.103466 1.35715,-0.146497 0.32175,-0.03056 1.18535,-0.312305 0.96673,-0.07426 -1.07649,1.172158 -2.45715,2.023259 -3.68573,3.034888 -1.45304,-0.228299 -2.95235,-0.03678 -4.41267,-0.183747 -4.26774,-0.164483 -8.53371,-0.361854 -12.79311,-0.683621 -3.60374,-0.270484 -7.20183,-0.594505 -10.80555,-0.860949 -2.49122,0.218967 -0.0129,0.109387 3.46054,-2.488766 0.12427,-0.09295 -0.24631,-0.205375 -0.31097,-0.346439 -0.0274,-0.05968 0.12047,0.05389 0.18416,0.06981 0.42174,0.105434 0.73997,0.133095 1.18218,0.192691 2.85875,0.208629 5.72077,0.187747 8.58515,0.102452 3.98346,-0.11118 7.96388,-0.303588 11.93124,-0.691457 2.37167,-0.282634 4.73091,-0.66207 7.10535,-0.919599 0.212,-0.03383 0.42335,-0.07198 0.636,-0.101492 0.15866,-0.02202 0.59864,-0.157993 0.47761,-0.05305 -3.56821,3.094083 -2.54745,3.132302 -5.07202,3.061496 -2.82243,-0.05945 -5.64552,-0.07644 -8.46809,-0.127964 -5.5101,-0.09688 -11.02422,-0.175429 -16.52473,-0.537501 -3.62055,-0.280424 -7.24515,-0.55704 -10.84872,-1.00993 1.29421,-1.025325 2.53928,-2.115925 3.88263,-3.075976 0.0985,-0.07037 0.24015,0.03029 0.36044,0.04357 0.18074,0.01995 0.36179,0.03703 0.54262,0.05614 0.83953,0.08869 1.67977,0.168557 2.52046,0.245599 2.17415,0.170273 4.34906,0.310557 6.53114,0.302594 0.21554,-0.0051 0.4311,-0.0089 0.64661,-0.01518 0.13343,-0.0039 0.50307,-0.100511 0.40018,-0.01547 -3.75211,3.100967 -2.56678,3.133766 -4.92632,3.078354 -1.3296,-0.02681 -2.66004,-0.01951 -3.98963,0.0029 -0.21948,0.0065 -0.88208,0.02215 -1.13037,0.0431 -0.13786,0.01163 -0.5264,0.130227 -0.41169,0.05286 1.39672,-0.942023 2.86102,-1.779754 4.29153,-2.66963 -0.0818,-0.108413 -0.21835,-0.192149 -0.24552,-0.325238 -0.013,-0.06376 0.12603,0.03244 0.18905,0.04866 1.2794,0.253761 2.58586,0.340657 3.88588,0.416328 1.61705,0.06631 3.24384,0.04356 4.85303,0.203369 -1.32477,1.053971 -2.62832,2.135197 -3.97432,3.161913 -0.0692,0.05278 -0.16866,0.04305 -0.25338,0.06292 -0.7738,0.181438 -1.5549,0.32925 -2.33795,0.464521 -1.73126,0.340114 -3.49502,0.512994 -5.20292,0.966159 -2.20604,0.779025 1.0961,-0.351383 3.67631,-2.285734 0.35,-0.262391 -0.82214,-0.473292 -0.16836,-0.441934 0.0918,0.0044 0.18361,0.01027 0.27541,0.01541 1.42659,0.117627 2.85898,0.069 4.28919,0.09323 2.57744,0.01604 5.15503,0.0165 7.73222,0.05945 0.41509,0.01208 2.18952,-0.02387 2.57131,0.195404 2.16342,1.242533 -2.69325,2.988779 -4.47798,3.3778 -2.10539,0.445008 -4.22301,0.827151 -6.37085,1.005983 -3.31282,0.376461 -6.63962,0.551758 -9.96363,0.795409 -0.36104,0.0179 -0.72194,0.03897 -1.08313,0.05369 -0.26524,0.0108 -0.98203,0.212301 -0.79606,0.02286 3.11584,-3.173977 2.55736,-3.076562 5.12215,-3.064938 2.27023,-0.04942 4.54013,-0.167814 6.79209,-0.474994 3.24521,-0.434719 6.50163,-0.790135 9.75085,-1.191283 1.17317,-0.07272 2.33372,-0.102148 3.50885,-0.09803 0.0294,1.04e-4 1.08749,-0.01356 1.2257,0.08088 0.19363,0.132303 0.28272,0.374225 0.42409,0.561337 -1.54343,0.88422 -3.07434,1.790655 -4.63028,2.65266 -0.26758,0.148241 -0.58335,0.184611 -0.8773,0.269265 -0.95052,0.273732 -1.9222,0.444256 -2.87934,0.693387 -4.02077,1.005266 -8.11502,1.62957 -12.22445,2.149387 -2.44051,0.299523 -4.89014,0.613121 -7.34688,0.750798 -1.21685,0.06819 -2.68435,0.05633 -3.91314,0.07502 -0.55354,0.0084 -1.10696,0.02371 -1.66044,0.03557 -0.4151,0.0145 -0.8304,0.02389 -1.24529,0.04351 -0.26391,0.01248 -0.99397,0.22176 -0.79086,0.05279 1.26262,-1.050401 2.77025,-1.773415 4.06846,-2.779494 0.0778,-0.06032 -0.2407,-0.142045 -0.18982,-0.226346 0.16033,-0.265624 0.91775,0.759146 0.92558,0.0983 3.10412,0.174509 6.19727,-0.244589 9.26704,-0.677037 4.16905,-0.71779 8.28304,-1.697398 12.31031,-3.001655 0.0471,-0.01377 2.59761,-0.761355 2.81455,-0.817969 0.44946,-0.117287 1.56625,-0.504011 2.04831,-0.130542 0.14957,0.115876 0.21316,0.312659 0.31974,0.468989 -0.0991,0.230184 -0.35926,0.400492 -0.57701,0.530242 -2.10689,1.255446 -3.71932,2.510035 -5.89473,3.226201 -1.69653,0.393372 -3.30418,0.457783 -5.0319,0.160978 -0.80601,-0.124618 -1.61628,-0.237627 -2.41292,-0.416216 -2.10611,-0.47214 -4.13208,-1.255991 -6.2275,-1.769764 -3.59264,-1.14057 -7.17726,-2.347788 -10.88975,-3.0464 -0.36846,-0.03272 -0.73552,-0.09245 -1.10539,-0.09817 -0.23937,-0.0037 -0.90597,0.214095 -0.71479,0.06999 1.29213,-0.97399 2.78492,-1.658024 4.09021,-2.614316 0.0856,-0.0627 -0.30535,-0.114333 -0.24585,-0.202177 0.15767,-0.232752 0.63505,0.894045 0.76868,0.347025 1.33388,0.411118 2.6675,0.880404 3.81053,1.703703 0.99179,0.919303 1.76361,2.011095 1.75021,3.417184 -0.0107,0.137455 -0.023,0.274801 -0.0322,0.412365 -0.009,0.130441 0.088,0.320406 -0.0217,0.391601 -3.33075,2.162663 -4.12671,4.200701 -5.31644,1.793579 -0.57961,-1.509681 -1.11035,-3.037025 -1.71276,-4.537746 -0.10964,-0.371117 -0.30198,-1.01453 -0.29134,-1.021124 5.24755,-3.252949 4.17025,-3.547147 5.63427,-0.669754 0.81166,1.70578 1.62391,3.41653 2.59657,5.037712 1.40949,1.224439 0.29074,0.176579 -4.18027,2.787641 -0.0776,0.04533 0.12417,-0.141995 0.14002,-0.230478 0.0753,-0.420069 0.007,-0.853495 0.007,-1.280252 -1.5e-4,-0.251688 -10e-4,-0.503376 -0.002,-0.755063 0.001,-0.967049 0.015,-1.9381 -0.009,-2.904872 -0.004,-0.166346 -0.16506,-0.407689 -0.0256,-0.498533 1.50488,-0.980611 3.1572,-1.713804 4.73579,-2.570707 0.82148,0.98567 1.09944,2.290157 1.66555,3.416104 0.89273,2.433824 1.61567,4.935522 1.99202,7.505366 0.12338,2.58965 0.28613,1.0442 -4.61646,3.74789 -0.0953,0.0525 -0.15671,-0.15728 -0.20275,-0.25589 -0.0879,-0.18823 -0.30843,-1.15653 -0.32796,-1.24761 -0.067,-0.31236 -0.12209,-0.62715 -0.18314,-0.94072 -0.58539,-2.711067 -1.25527,-5.405391 -1.55718,-8.170248 -0.0322,-0.346395 -0.0756,-0.691935 -0.0967,-1.039186 -0.0161,-0.265033 -0.23312,-0.645025 -0.015,-0.796431 4.92624,-3.419398 4.37781,-3.869061 5.46314,-1.020858 0.54461,2.020324 1.09533,4.045654 0.93672,6.166545 -2.8e-4,0.348928 10e-4,0.697861 -8.4e-4,1.046784 -0.001,0.25859 0.18496,0.604578 -0.009,0.77573 -3.19417,2.820144 -3.9695,4.737164 -5.25831,2.171034 -0.72323,-2.034757 -1.60794,-4.006222 -2.36675,-6.027044 -0.0439,-0.107789 -1.30952,-3.103437 -1.28346,-3.121623 1.44213,-1.006427 2.97055,-1.891018 4.52857,-2.706621 0.0884,-0.04627 0.0736,0.185435 0.11046,0.278153 0.10904,0.435701 0.2432,0.86555 0.33294,1.305631 0.30001,1.471231 0.34891,2.990238 0.4086,4.484681 -0.004,2.137424 -0.003,4.275229 -0.0546,6.412143 -1.60007,0.85113 -3.14945,1.80532 -4.80022,2.55338 -0.10729,0.0486 -0.15539,-0.17899 -0.21421,-0.28104 -0.5598,-0.97134 -0.72986,-2.1475 -1.07607,-3.1975 -0.78327,-2.669527 -1.38696,-5.397016 -1.76612,-8.154072 -0.0444,-0.317795 -0.0888,-0.635594 -0.13317,-0.953386 -0.0299,-0.214318 -0.26689,-0.518384 -0.0899,-0.642945 5.53981,-3.899502 4.64172,-3.905037 4.62898,-0.976772 -0.0234,2.054113 -0.0137,4.108372 -0.0568,6.162191 -0.0172,0.236924 -0.0759,1.085286 -0.0898,1.094206 -3.56049,2.269002 -3.98133,4.040878 -5.28777,1.97156 -0.63022,-1.03823 -0.86188,-2.28608 -1.22733,-3.43223 -0.21789,-1.006311 -0.3659,-1.72153 -0.28438,-2.754352 0.0123,-0.155738 -0.0947,-0.381453 0.0358,-0.467297 1.51252,-0.994787 3.1538,-1.778422 4.7307,-2.667633 0.78527,0.660165 1.04881,2.038204 1.47796,2.936803 0.46953,1.580665 0.79067,3.216062 0.7126,4.872765 0.19113,2.234089 0.20716,0.676914 -4.76021,2.862702 -0.0558,0.0245 -0.70496,-1.492603 -0.67567,-1.601812 -0.27809,-0.810483 -0.60008,-1.602592 -0.82832,-2.429803 -0.26248,-0.951286 -0.23327,-0.962875 -0.39684,-1.932921 -0.0544,-0.322811 -0.11072,-0.645308 -0.16607,-0.967962 -0.10399,-0.772771 -0.20536,-1.514921 -0.21503,-2.293605 -0.002,-0.147568 -0.13878,-0.363696 -0.014,-0.442518 1.51415,-0.956564 3.12337,-1.758185 4.73479,-2.539831 0.0675,-0.03273 0.0321,0.146509 0.0482,0.219764 0.16933,1.826916 0.0684,3.655656 0.007,5.486281 -0.0835,2.042374 -0.21462,4.081015 -0.38827,6.117027 -1.6112,0.84441 -3.19,1.75376 -4.83359,2.53323 -6.1e-4,2.9e-4 -0.16184,-0.32643 -0.2334,-0.58924 -0.18478,-0.67865 -0.23139,-1.39395 -0.33788,-2.085555 -0.38455,-2.252608 -0.57787,-4.538739 -1.09665,-6.767082 -0.0603,-0.265849 -0.11891,-0.532111 -0.18105,-0.797548 -0.0313,-0.133645 -0.21375,-0.323981 -0.0992,-0.399643 1.46445,-0.967522 3.06357,-1.713883 4.59535,-2.570825 -0.027,0.06698 -0.0708,0.129457 -0.0811,0.200943 -0.0496,0.342585 0.0318,0.69652 -0.0274,1.0381 -0.0369,1.875824 -0.0675,3.752297 -0.16253,5.626282 -0.0523,0.799825 -0.10948,1.582359 -0.22538,2.374388 -0.0249,0.170244 0.0834,0.422362 -0.0633,0.512281 -4.61084,2.826379 -3.5303,3.705339 -5.07111,2.229539 -0.67797,-1.32414 -1.26409,-2.692336 -1.71994,-4.112135 -0.93477,-2.555127 -1.91065,-5.11725 -2.50338,-7.776259 -0.0215,-0.304928 -0.0611,-0.609118 -0.0645,-0.914784 -0.003,-0.23207 -0.13246,-0.546805 0.0464,-0.694709 2.82009,-2.332085 3.98144,-4.630385 5.50343,-2.181095 1.15868,2.102425 2.23045,4.247787 2.95099,6.548086 0.43292,1.293723 0.86421,2.586942 1.26651,3.890576 0.0917,0.297114 0.19387,0.591322 0.27187,0.89232 0.056,0.216174 0.30975,0.525203 0.12967,0.657271 -1.45095,1.064134 -3.12272,1.78863 -4.68408,2.682939 -0.14292,-0.33774 -0.15854,-0.717702 -0.20761,-1.078714 -0.10682,-0.785781 -0.21387,-1.572626 -0.24604,-2.365987 -0.1876,-1.693483 -0.1813,-3.389115 -0.17298,-5.091403 1.51997,-0.989749 2.97895,-2.080137 4.55989,-2.969247 0.29461,-0.165687 0.65523,2.16543 0.65666,2.328866 0.17199,1.118717 0.0949,2.250003 0.1823,3.377726 -4.86574,2.724978 -4.30125,4.198707 -4.98343,1.447197 -0.19093,-0.714418 -0.41163,-1.412031 -0.64488,-2.112582 -1.05206,-1.675352 0.70256,-0.702141 4.40894,-2.739489 0.0835,-0.04591 -0.0964,0.0282 -0.25652,0.183489 -0.0591,0.0573 -0.11104,0.121537 -0.16656,0.182305 -0.48881,0.917894 -0.97919,1.826306 -1.39176,2.782492 -0.69859,0.933894 -0.003,-0.04465 -0.60499,0.954352 -1.08624,1.801865 -3.91204,4.5571 -5.5573,2.855336 -0.2602,-0.682557 -0.0197,-1.432438 -0.007,-2.141734 0.0144,-0.197857 0.20142,-2.120886 0.26819,-2.164605 4.70552,-3.080659 4.15895,-4.411547 4.84141,-2.533624 0.1141,1.067235 -0.26632,2.112474 -0.4335,3.156934 -0.31363,1.55896 -0.56314,3.123953 -0.78493,4.698002 -5.63143,3.230736 -4.68431,4.087176 -4.67254,0.30766 0.007,-0.994562 0.001,-1.989356 -0.0243,-2.983636 -0.004,-0.163203 -0.14785,-0.396915 -0.0134,-0.489589 1.4892,-1.026816 3.12527,-1.822337 4.68791,-2.733505 -0.12547,0.244066 -0.0861,0.70362 -0.10442,0.960927 -0.0426,0.598608 -0.10365,1.19581 -0.18031,1.791001 -0.1513,1.106859 -0.32223,2.219172 -0.59668,3.301271 -0.98312,0.56273 -4.09841,4.173797 -5.49017,2.094537 -0.17106,-0.25556 -0.23267,-0.57527 -0.41459,-0.82417 -0.59022,-1.755921 -0.7381,-3.575312 -0.49855,-5.415712 0.10992,-1.148064 0.1753,-2.343629 0.62958,-3.420669 0.069,-0.163658 0.0916,-0.380765 0.24241,-0.474526 1.56887,-0.975085 3.23067,-1.792021 4.846,-2.688031 1.03277,0.286039 1.31024,0.976271 1.4597,1.988002 0.0898,1.181541 0.0191,2.367693 0.0819,3.551277 0.0911,2.055951 0.0952,0.277909 -4.695,2.823514 -0.0193,0.01024 0.0241,-0.03827 0.0262,-0.05998 0.0209,-0.217111 0.0145,-0.435993 0.0218,-0.653987 0.005,-0.163245 0.01,-0.326529 0.0146,-0.489793 0.0114,-1.434546 0.0382,-2.872287 -0.0852,-4.303294 -0.28027,-2.270587 -0.21855,-0.498738 4.52626,-3.261854 0.055,-0.03202 -0.0952,0.09086 -0.11755,0.150427 -0.19377,0.515571 -0.11372,1.103283 -0.24752,1.629998 -0.32192,1.757687 -0.71595,3.501591 -1.02244,5.262128 -0.0367,0.108125 -0.39567,1.180911 -0.42249,1.200049 -1.52582,1.088988 -3.12901,2.070275 -4.75748,2.998761 -0.12265,0.06993 -0.28673,-0.0026 -0.42102,-0.0462 -0.2554,-0.08287 -0.4673,-0.324898 -0.65153,-0.497953 -1.05694,-1.270273 -1.66814,-2.890986 -2.00913,-4.491267 -0.2723,-1.217897 -0.42632,-2.277909 -0.42726,-3.524918 -1.2e-4,-0.160656 -0.14068,-0.391916 -0.008,-0.481907 1.49124,-1.008364 3.1248,-1.788276 4.6872,-2.682414 0.65967,0.743369 0.78876,1.800309 0.89171,2.747938 0.0762,1.983887 0.004,3.969597 0.0281,5.954513 0.002,0.208652 0.16811,0.492845 0.007,0.625955 -2.66282,2.205699 -4.15359,4.733433 -5.02714,2.115377 -0.0552,-0.165433 -0.10476,-0.332695 -0.15714,-0.499042 -0.37786,-1.451714 0.0933,0.296535 -0.39128,-1.288907 -0.25369,-0.82994 -0.42104,-1.671116 -0.60382,-2.517313 -0.0591,-0.273376 -0.13119,-0.543759 -0.19679,-0.815639 -0.6711,-2.355309 0.21928,0.786498 -0.38102,-1.382867 -0.0412,-0.148783 -0.0767,-0.29966 -0.13056,-0.444337 -0.028,-0.07517 -0.18282,-0.171257 -0.11375,-0.212032 1.49848,-0.884638 3.09967,-1.584909 4.6129,-2.444071 0.0532,-0.03019 -0.10947,-0.0545 -0.1642,-0.08174 -0.32991,0.603953 -0.20423,1.290155 -0.23009,1.95328 -0.01,0.901755 -0.008,1.803213 -0.0326,2.704667 -2.84121,1.694857 -4.31751,4.386746 -5.28279,1.682536 -0.28758,-0.879837 -0.50621,-1.756239 -0.3957,-2.690844 0.23349,-2.15038 -0.0343,-0.566983 4.7379,-3.153393 0.0469,-0.02541 0.70154,0.969853 0.75783,1.053589 0.70395,1.080522 1.19262,2.276242 1.575,3.505407 0.27061,0.958116 0.4951,1.908892 0.42506,2.912314 0.0471,2.076113 0.0901,0.264621 -4.69789,2.894308 -0.0126,0.007 0.019,-0.0233 0.0214,-0.0375 0.0126,-0.0752 0.0184,-0.1514 0.0231,-0.22747 0.009,-0.150796 0.0144,-0.301846 0.0191,-0.45286 0.007,-0.209646 0.01,-0.419381 0.0147,-0.629071 0.0476,-1.964265 0.0691,-3.929813 0.0302,-5.894387 -0.0235,-0.681241 -0.0239,-0.970901 -0.0782,-1.619561 -0.012,-0.143346 -0.1689,-0.350209 -0.0484,-0.428816 6.97402,-4.550572 5.5746,-3.688975 4.31724,-2.217803 -0.31818,0.492485 -0.0158,0.09235 -0.42439,0.467294 -0.41969,0.385131 -0.75008,0.874327 -1.2496,1.169436 -1.73725,1.475449 -0.53977,0.494308 -5.18959,3.074641 -0.41693,0.231364 -0.86238,0.178265 -1.1453,-0.198857 -0.0415,-0.107458 -0.12401,-0.207195 -0.12439,-0.322374 -1.7e-4,-0.05015 0.0825,-0.05705 0.12304,-0.08659 0.3895,-0.283937 0.71077,-0.637979 1.12175,-0.892538 1.39085,-0.802282 4.22436,-2.791449 6.37818,-3.447971 0.38893,-0.118554 0.51258,-0.09905 0.90377,-0.113222 0.39078,0.01603 1.16561,0.06823 1.06701,0.664857 -0.0288,0.118843 -0.0149,0.245468 -0.0443,0.364145 -0.0224,0.09019 -0.124,0.142415 -0.16071,0.227778 -0.13492,0.31368 0.0384,0.187393 -0.19706,0.304724 -1.57715,0.858218 -3.14304,1.737443 -4.73143,2.574655 -0.12164,0.06411 -0.38082,-0.207787 -0.41556,-0.251932 -0.10734,-0.136395 -0.11351,-0.222071 -0.15747,-0.383482 0.15942,-0.231608 -0.0327,0.07185 0.12156,-0.306921 0.0852,-0.209224 0.0662,-0.106914 0.23301,-0.201738 4.7678,-2.710329 2.89049,-2.887811 4.85937,-2.66361 0.37081,-0.0015 0.742,-0.02093 1.11244,0.0023 0.44069,0.05795 0.73795,0.310613 0.72719,0.779152 -0.075,0.1577 -0.11711,0.330574 -0.20072,0.483878 -0.27092,0.496801 -0.70336,0.920837 -0.95212,1.435393 -1.63492,2.608237 -3.73997,3.398169 -6.69377,4.971172 -0.49145,0.0016 -0.83421,-0.06882 -1.02748,-0.567757 0.048,-0.300387 0.16293,-0.503405 0.2999,-0.773785 0.0646,-0.103225 0.17376,-0.176919 0.22637,-0.286745 0.13419,-0.280126 -0.0315,-0.176609 0.10436,-0.423222 0.0183,-0.03325 0.0755,-0.03706 0.0873,-0.07313 0.0216,-0.06574 0.003,-0.138345 0.005,-0.207517 0.13867,-0.570222 0.28957,-1.133019 0.61663,-1.634332 0.44653,-0.962217 0.95293,-1.887259 1.3997,-2.849545 0,0 4.733,-2.247947 4.733,-2.247947 z"
     inkscape:connector-curvature="0" /></svg>